<?xml version="1.0" encoding="UTF-8" standalone="no"?>
<svg width="11px" height="24px" viewBox="0 0 11 24" version="1.1" xmlns="http://www.w3.org/2000/svg" xmlns:xlink="http://www.w3.org/1999/xlink">
    <!-- Generator: Sketch 39 (31667) - http://www.bohemiancoding.com/sketch -->
    <title>Shape</title>
    <desc>Created with Sketch.</desc>
    <defs></defs>
    <g id="v2" stroke="none" stroke-width="1" fill="none" fill-rule="evenodd">
        <g id="landing-1" transform="translate(-239.000000, -614.000000)" fill="#FFFFFF">
            <g id="Group" transform="translate(219.000000, 601.000000)">
                <path d="M23.5932577,14.2035559 C24.5042165,13.3361436 25.7999485,13.0431693 27.0222526,13.0066539 C28.3149794,12.9950302 29.6071959,13.0020611 30.8999227,13.0025714 C30.9050258,14.3662879 30.9054794,15.7305147 30.8994124,17.0941745 C30.0639794,17.0927003 29.2279794,17.0962157 28.3925464,17.0927003 C27.8627887,17.0597003 27.318799,17.461257 27.2225206,17.9864219 C27.2098196,18.8989116 27.2179278,19.8119116 27.2184381,20.724458 C28.4437474,20.7295044 29.6690567,20.7229271 30.8943093,20.7275199 C30.8046082,22.0475766 30.6408557,23.3616229 30.4487526,24.6705662 C29.3664433,24.6807157 28.2835103,24.6695456 27.2012577,24.6761796 C27.1916186,28.5695559 27.2063041,32.4629322 27.1936598,36.3563085 C25.5860722,36.3628858 23.9775206,36.3532467 22.3699897,36.3608446 C22.3395412,32.466958 22.3724845,28.5710869 22.3532629,24.67669 C21.5689742,24.668525 20.784232,24.6823034 20,24.6701126 C20.0030052,23.3611693 20.0010206,22.0522827 20.0014742,20.7437931 C20.7851959,20.7342106 21.5694845,20.7458343 22.3532629,20.7382364 C22.3770773,19.4657518 22.3293918,18.1917931 22.3780979,16.9203858 C22.4566856,15.9134889 22.8404381,14.8990508 23.5932577,14.2035559 L23.5932577,14.2035559 Z" id="Shape"></path>
            </g>
        </g>
    </g>
</svg>