<?xml version="1.0" encoding="UTF-8" standalone="no"?>
<svg width="19px" height="20px" viewBox="0 0 19 20" version="1.1" xmlns="http://www.w3.org/2000/svg" xmlns:xlink="http://www.w3.org/1999/xlink">
    <!-- Generator: Sketch 39.1 (31720) - http://www.bohemiancoding.com/sketch -->
    <title>Shape</title>
    <desc>Created with Sketch.</desc>
    <defs></defs>
    <g id="v2" stroke="none" stroke-width="1" fill="none" fill-rule="evenodd">
        <g id="Invite-1-Copy" transform="translate(-314.000000, -342.000000)" fill="#FFFFFF">
            <g id="Group-6" transform="translate(295.000000, 152.000000)">
                <g id="Group-2" transform="translate(0.000000, 173.000000)">
                    <path d="M28.6931711,25.3084323 L28.6931711,28.6318053 L34.1905838,28.6318053 C33.9690256,30.0567014 32.5288973,32.8137162 28.6931711,32.8137162 C25.3836455,32.8137162 22.683405,30.0733183 22.683405,26.6931711 C22.683405,23.3144086 25.3836455,20.5726259 28.6931711,20.5726259 C30.5764157,20.5726259 31.8365279,21.3757744 32.5565921,22.0681437 L35.1875957,19.5340719 C33.4982144,17.9554697 31.3103272,17 28.6931711,17 C23.3342322,17 19,21.3342322 19,26.6931711 C19,32.0521099 23.3342322,36.3863421 28.6931711,36.3863421 C34.2875155,36.3863421 38,32.4536841 38,26.9147292 C38,26.2777494 37.9293783,25.7930909 37.846294,25.3084323 L28.6931711,25.3084323 L28.6931711,25.3084323 Z" id="Shape"></path>
                </g>
            </g>
        </g>
    </g>
</svg>