<?xml version="1.0" encoding="UTF-8" standalone="no"?>
<svg width="22px" height="22px" viewBox="0 0 22 22" version="1.1" xmlns="http://www.w3.org/2000/svg" xmlns:xlink="http://www.w3.org/1999/xlink">
    <!-- Generator: Sketch 39 (31667) - http://www.bohemiancoding.com/sketch -->
    <title>LinkedIn</title>
    <desc>Created with Sketch.</desc>
    <defs></defs>
    <g id="v2" stroke="none" stroke-width="1" fill="none" fill-rule="evenodd">
        <g id="landing-1" transform="translate(-420.000000, -615.000000)" fill="#FFFFFF">
            <g id="Group-2" transform="translate(401.000000, 601.000000)">
                <path d="M41,26.8887489 L41,35.0222893 L36.2846877,35.0222893 L36.2846877,27.4334844 C36.2846877,25.5271147 35.6026686,24.226092 33.8958818,24.226092 C32.5929666,24.226092 31.8176008,25.102886 31.476489,25.9510366 C31.3520949,26.2542471 31.3200757,26.6762765 31.3200757,27.1007098 L31.3200757,35.0222893 L26.6031777,35.0222893 C26.6031777,35.0222893 26.6667046,22.1693446 26.6031777,20.8376837 L31.3196154,20.8376837 L31.3196154,22.8482948 C31.3100505,22.8633325 31.2976213,22.8795467 31.2886191,22.8941242 L31.3196154,22.8941242 L31.3196154,22.8482948 C31.9462402,21.8831667 33.0653264,20.5044488 35.570189,20.5044488 C38.6735446,20.5043976 41,22.5317855 41,26.8887489 L41,26.8887489 Z M21.6691017,14 C20.055457,14 19,15.0584236 19,16.4502868 C19,17.8118186 20.0249211,18.9023638 21.6064954,18.9023638 L21.6380031,18.9023638 C23.2828998,18.9023638 24.3058772,17.8120232 24.3058772,16.4502868 C24.274881,15.0584236 23.2828998,14 21.6691017,14 L21.6691017,14 Z M19.2801424,35.0222893 L23.9952501,35.0222893 L23.9952501,20.8376837 L19.2801424,20.8376837 L19.2801424,35.0222893 L19.2801424,35.0222893 Z" id="LinkedIn"></path>
            </g>
        </g>
    </g>
</svg>