<?xml version="1.0" encoding="UTF-8"?>
<svg width="8px" height="5px" viewBox="0 0 8 5" version="1.1" xmlns="http://www.w3.org/2000/svg" xmlns:xlink="http://www.w3.org/1999/xlink">
    <!-- Generator: Sketch 46 (44423) - http://www.bohemiancoding.com/sketch -->
    <title>Fill 1</title>
    <desc>Created with Sketch.</desc>
    <defs></defs>
    <g id="Page-1" stroke="none" stroke-width="1" fill="none" fill-rule="evenodd">
        <g id="SST-P2-dropdown-labelling" transform="translate(-1253.000000, -912.000000)" fill="#9CACBB">
            <g id="Menu-/-Group-by-/-Default-Copy-6" transform="translate(965.000000, 844.000000)">
                <g id="menu-/-group-by">
                    <g id="Group">
                        <g id="Header" transform="translate(-1.000000, 0.000000)">
                            <g id="Menu-GroupBy-Copy" transform="translate(0.000000, 48.000000)">
                                <g id="Menu-GroupBy">
                                    <g id="Header">
                                        <g id="TItles" transform="translate(21.000000, 14.000000)">
                                            <g id="Group-7" transform="translate(264.000000, 0.000000)">
                                                <path d="M4.2346,7.3658 C3.9218,7.053 3.9218,6.5474 4.2346,6.2346 C4.5474,5.9218 5.053,5.9218 5.3658,6.2346 L8.0002,8.869 L10.6346,6.2346 C10.9474,5.9218 11.453,5.9218 11.7658,6.2346 C11.9218,6.3906 12.0002,6.5954 12.0002,6.8002 C12.0002,7.005 11.9218,7.2098 11.7658,7.3658 L8.5658,10.5658 C8.253,10.8786 7.7474,10.8786 7.4346,10.5658 L4.2346,7.3658 Z" id="Fill-1" transform="translate(8.000100, 8.400200) scale(-1, 1) translate(-8.000100, -8.400200) "></path>
                                            </g>
                                        </g>
                                    </g>
                                </g>
                            </g>
                        </g>
                    </g>
                </g>
            </g>
        </g>
    </g>
</svg>