<?xml version="1.0" encoding="utf-8"?>
<!-- Generated by IcoMoon.io -->
<!DOCTYPE svg PUBLIC "-//W3C//DTD SVG 1.1//EN" "http://www.w3.org/Graphics/SVG/1.1/DTD/svg11.dtd">
<svg version="1.1" xmlns="http://www.w3.org/2000/svg" xmlns:xlink="http://www.w3.org/1999/xlink" width="22" height="22" viewBox="0 0 22 22">
<path fill="#4ba8ff" d="M15.75 14.5c0-0.414 0.336-0.75 0.75-0.75 0.232 0 0.431 0.111 0.568 0.276 0.109 0.13 0.182 0.291 0.182 0.474 0 0.414-0.336 0.75-0.75 0.75-0.232 0-0.431-0.111-0.568-0.276-0.109-0.13-0.182-0.291-0.182-0.474zM12.25 8.5c0 0.183-0.073 0.344-0.182 0.474-0.137 0.165-0.336 0.276-0.568 0.276s-0.431-0.111-0.568-0.276c-0.109-0.13-0.182-0.291-0.182-0.474s0.073-0.344 0.182-0.474c0.137-0.165 0.336-0.276 0.568-0.276s0.431 0.111 0.568 0.276c0.109 0.13 0.182 0.291 0.182 0.474zM5.75 14.5c0-0.183 0.073-0.344 0.182-0.474 0.137-0.165 0.336-0.276 0.568-0.276 0.414 0 0.75 0.336 0.75 0.75 0 0.183-0.073 0.344-0.182 0.474-0.137 0.165-0.336 0.276-0.568 0.276-0.414 0-0.75-0.336-0.75-0.75zM16.5 12c-0.241 0-0.47 0.045-0.69 0.109l-2.082-2.498c0.168-0.336 0.272-0.71 0.272-1.111 0-1.379-1.122-2.5-2.5-2.5s-2.5 1.121-2.5 2.5c0 0.401 0.104 0.775 0.272 1.111l-2.081 2.498c-0.221-0.064-0.45-0.109-0.691-0.109-1.378 0-2.5 1.121-2.5 2.5s1.122 2.5 2.5 2.5 2.5-1.122 2.5-2.5c0-0.401-0.104-0.775-0.272-1.111l2.081-2.498c0.221 0.064 0.45 0.109 0.691 0.109s0.47-0.045 0.691-0.109l2.081 2.498c-0.168 0.336-0.272 0.71-0.272 1.111 0 1.378 1.122 2.5 2.5 2.5s2.5-1.122 2.5-2.5c0-1.379-1.122-2.5-2.5-2.5z"></path>
</svg>
