<?xml version="1.0" encoding="utf-8"?>
<!-- Generated by IcoMoon.io -->
<!DOCTYPE svg PUBLIC "-//W3C//DTD SVG 1.1//EN" "http://www.w3.org/Graphics/SVG/1.1/DTD/svg11.dtd">
<svg version="1.1" xmlns="http://www.w3.org/2000/svg" xmlns:xlink="http://www.w3.org/1999/xlink" width="22" height="22" viewBox="0 0 22 22">
<path fill="#bdc9d6" d="M10 15c-2.757 0-5-2.243-5-5s2.243-5 5-5c2.757 0 5 2.243 5 5s-2.243 5-5 5zM18.707 17.293l-3-3c-0.037-0.037-0.084-0.053-0.124-0.083 0.886-1.172 1.417-2.627 1.417-4.21 0-3.866-3.134-7-7-7s-7 3.134-7 7c0 3.866 3.134 7 7 7 1.583 0 3.038-0.531 4.21-1.417 0.030 0.040 0.046 0.087 0.083 0.124l3 3c0.195 0.195 0.451 0.293 0.707 0.293s0.512-0.098 0.707-0.293c0.391-0.391 0.391-1.023 0-1.414z"></path>
</svg>
