<?xml version="1.0" encoding="UTF-8" standalone="no"?>
<svg viewBox="0 0 22 22" version="1.1" xmlns="http://www.w3.org/2000/svg" xmlns:xlink="http://www.w3.org/1999/xlink">
    <!-- Generator: Sketch 41.2 (35397) - http://www.bohemiancoding.com/sketch -->
    <title>type-number</title>
    <desc>Created with Sketch.</desc>
    <defs></defs>
    <g id="16-x-16" stroke="none" stroke-width="1" fill-rule="evenodd">
        <g id="type-number">
            <g id="type_number" transform="translate(2.000000, 2.000000)">
                <path fill="#4ba8ff" d="M9.2002,4.8999 L10.0992,4.8999 L10.0992,11.6999 L11.5992,11.6999 L11.5992,13.0999 L6.6002,13.0999 L6.6002,11.6999 L8.2002,11.6999 L8.2002,6.5999 L6.7002,6.6999 L6.6002,5.3999 L9.2002,4.8999 Z M3.0002,17.9999 L15.0002,17.9999 C16.7002,17.9999 18.0002,16.6999 18.0002,14.9999 L18.0002,2.9999 C18.0002,1.2999 16.7002,-0.0001 15.0002,-0.0001 L3.0002,-0.0001 C1.3002,-0.0001 0.0002,1.2999 0.0002,2.9999 L0.0002,14.9999 C0.0002,16.6999 1.3002,17.9999 3.0002,17.9999 L3.0002,17.9999 Z" id="shape"></path>
            </g>
        </g>
    </g>
</svg>
