<?xml version="1.0" encoding="utf-8"?>
<!-- Generator: Adobe Illustrator 21.1.0, SVG Export Plug-In . SVG Version: 6.00 Build 0)  -->
<svg version="1.1" id="Layer_1" xmlns="http://www.w3.org/2000/svg" xmlns:xlink="http://www.w3.org/1999/xlink" x="0px" y="0px"
	 viewBox="0 0 420 326.8" style="enable-background:new 0 0 420 326.8;" xml:space="preserve">
<style type="text/css">
	.st0{fill:none;stroke:#FFFFFF;stroke-miterlimit:10;}
</style>
<path class="st0" d="M170.5,68.8c-19,10.6-23.7,17.3-25.5,21.8c-3.1,7.5-4.2,10.2-7,15.9c-2.5,5.2-4.7,10.3-7.1,16.1
	c-1.4,3.5-2.9,7.1-4.2,10.7l-1.3,3.3c-6.5,16.4-10.9,23.9-18.8,30.3c-3.1,2.3-6.3,4.3-9.6,6.1c-0.7,0.4-9.7,5.4-12.5,7
	c-17.8,10.3-26.8,18.8-27.5,28.9c-0.4,5.1,1.6,10.4,6.3,16c3.7,4.5,6.5,9,8.4,13.6c4.8,11.4,4.4,20.1,0.7,35.3
	c-2.4,9.7-2.7,12.9-0.8,16.1c7.1,11.6,45.9,11.8,66.2-1.3c6.7-4.3,12.5-6.9,22.9-11.7l14.8-6.7c6.2-2.8,11.1-5.1,15.8-7.4
	c25.5-12.2,42.9-23,53.9-34.9c9.8-10.5,31.7-37.8,33.1-39.4c6.6-7.4,12.1-11.5,18.6-13.4c11.3-3.3,28.1-10.2,42.8-18.3
	c20.2-11.1,35.4-23.5,43-36.7c7.5-13.1,3.7-33-8.2-54.1c-10-17.7-24.3-33.1-31.8-34.6c-15.9-3.3-39.8,0.9-57.9,11.1
	c-6.6,3.7-13.4,5.2-22.2,5.5c-2.2,0.1-3.7,0.1-8,0c-12.8-0.1-18.5,0.7-24.9,4.6c-5.9,3.6-11,4.7-20.9,5.5
	C191.2,59.8,183.8,61.4,170.5,68.8L170.5,68.8z"/>
<path class="st0" d="M360.6,108.4c2.1-10-1.2-25.2-8.1-37.6c-7.4-13.3-17.2-20.9-26.7-19.4c-21.6,3.4-24.8,4.2-40,10.6
	c-3.7,1.6-15.8,7.5-18.5,8.5c-6.3,2.5-11.6,3.2-17.9,1.8c-11.8-2.5-15-1.1-23.3,8.8c-2.2,2.6-4.6,3.7-7.3,3.4
	c-1.9-0.2-2.8-0.5-7.4-2.5c-7.7-3.4-13-4.1-20.7-1.3c-25.9,9.4-46.2,28.3-51.9,55.4c-3,14.2-10.3,25.7-23.9,40.5l-7.2,7.8
	c-2.7,3-4.6,5.1-6.3,7.1c-4.1,5-9.7,16.5-10.5,20.1c-3.1,14.7,7.6,26.7,20.1,32.3l0.9,0.4c11.5,5.1,10.2,15.8,15.5,19.5
	c14.1,10,49.2-11,79.7-21.4c24.6-8.5,62.8-48.3,66-63.9c1.9-9.1,8.1-13.6,18.8-16.3c1.8-0.4,7.7-1.7,8.8-2c1.2-0.3,2.1-0.6,2.9-0.9
	c1.5-0.6,3-1,5.3-1.5c12.2-2.8,17.4-5.2,28.2-15.2c1.9-1.8,13.9-12.3,15.9-14.6C356.5,124.1,358.3,119.6,360.6,108.4L360.6,108.4z"
	/>
<path class="st0" d="M289.7,71.1c-3.9,1.3-7.7,3.1-11.1,5.5c-2.3,1.7-4.7,3.5-6.9,5.3c-4.4,3.3-8,4.2-14.2,3
	c-8.3-1.7-12.7-0.4-18.5,4.5c-0.4,0.4-3.8,3.2-4.9,4.1c-2,1.6-4,3.1-6.2,4.4c-1.1,0.7-2.2,1.2-3.3,1.6c-4.1,1.6-7.2,1.5-14.5,0.5
	c-10.9-1.6-16.7-1.8-27,0c-8.4,1.5-14.6,5.7-19.7,13c-4.2,6-7.3,13.1-12.3,27l-2.3,6.5l-2.5,6.8c-2,5.3-3.8,9.9-5.7,14.5
	c-3.2,7.7-12.6,27.2-13.7,30.3c-3.6,10.2-1.4,20,1.2,25.8c1.6,3.5,3.5,6.3,6.7,8.6c7.3,5,14.3,6,21.4,5.9c16.3-0.2,26-9.8,52.1-15.5
	c25.8-5.6,41.9-31.6,61.2-67.3c3.7-6.8,8.5-10.9,14.8-13c4.8-1.6,9.2-2,18.5-2.2c2.9,0,3.5-0.1,4.8-0.1c14-0.4,22.3-2.9,29.8-11
	c19.4-20.6,17.6-43.9-0.9-60.2c-7.4-6.5-10.5-8.2-14-7.8c-1,0.1-2.1,0.4-3.6,1c-0.9,0.3-4.6,1.8-4.9,1.9c-5.4,2.1-10.9,3.8-16.5,4.9
	C294.7,69.6,292.1,70.3,289.7,71.1L289.7,71.1z"/>
<path class="st0" d="M169.4,46.2c-3,1.3-6,2.6-9,3.6l-7.7,2.7c-13.6,4.9-20,11.6-29.3,33.5c-15.9,37.6-18.4,58.1-36,73
	c-4.9,4.1-10.3,7.8-19.2,13.4c-14.6,9.2-16.2,10.3-20.9,14c-6.4,5.1-11.3,7.3-14.2,14c-3.4,7.9,0.5,16.3,6.4,24.7
	c9.3,13.5,29.2,23,23.9,35.8c-6.7,16.3-11.4,17-13.3,26.5c-2.5,12.5,2.2,20.4,16.1,23.3c25.8,5.4,45.5,4.5,80.1-7.7
	c28.4-10,95.1-46.5,111.9-63.4c27.1-27.2,52.8-44.7,93-58.1c21.5-7.2,35.5-16.5,44.1-27.9c6.1-8.2,8.5-14.9,11.2-27.5
	c3.6-17.2,4.9-29.1,3.4-43.4c-1.6-15.2-6.8-28.4-16.4-39.1C367.3,14.5,338.7-1.3,308.5,6c1.1-0.3-27.2,6.5-33.9,8.2
	c-2.7,0.7-5.3,1.4-7.8,2.1c-12.6,3.4-25.1,7.3-37.4,11.8c-9.5,3.4-19.1,6.3-28.9,8.5l-7,1.6c-1.7,0.4-3.1,0.7-4.4,1.1
	C182.3,40.9,175.7,43.2,169.4,46.2z"/>
<path class="st0" d="M169,54.5c-3,1.3-6,2.6-9,3.6l-7.7,2.7c-13.6,4.9-20,11.6-29.3,33.5c-15.9,37.6-23.2,49.4-40.9,64.2
	c-4.9,4.1-10.3,7.8-19.2,13.4c-14.6,9.2-16.2,10.3-20.9,14c-6.4,5.1-11.3,7.3-14.2,14c-3.4,7.9,0.5,16.3,6.4,24.7
	c9.3,13.5,34.1,31.7,28.8,44.6c-6.7,16.3-11.4,17-13.3,26.5c-2.5,12.5,2.2,20.4,16.1,23.3c25.8,5.4,45.5,4.5,80.1-7.7
	c28.4-10,89.7-56.1,106.5-73c27.1-27.2,50.8-48.2,91.1-61.6c21.5-7.2,42.8-3.4,51.4-14.8c6.1-8.2,18.1-20.2,20.8-32.8
	c3.6-17.2-9.1-27.3-14.6-44.9c-4.6-14.6-6.8-28.4-16.4-39.1C358.6,16,338.3,7,308.1,14.3c1.1-0.3-27.2,6.5-33.9,8.2
	c-2.7,0.7-5.3,1.4-7.8,2.1C253.8,28,241.3,32,229,36.4c-9.5,3.4-19.1,6.3-28.9,8.5l-7,1.6c-1.7,0.4-3.1,0.7-4.4,1.1
	C181.9,49.2,175.3,51.6,169,54.5z"/>
<path class="st0" d="M286.1,78.4c-3.9,1.3-7.7,3.1-11.1,5.5c-2.3,1.7-4.7,3.5-6.9,5.3c-4.4,3.3-8,4.2-14.2,3
	c-8.3-1.7-12.7-0.4-18.5,4.5c-0.4,0.4-3.8,3.2-4.9,4.1c-2,1.6-4,3.1-6.2,4.4c-1.1,0.7-2.2,1.2-3.3,1.6c-4.1,1.6-7.2,1.5-14.5,0.5
	c-10.9-1.6-16.7-1.8-27,0c-8.4,1.5-14.6,5.7-19.7,13c-4.2,6-7.3,13.1-12.3,27l-2.3,6.5l-2.5,6.8c-2,5.3-3.8,9.9-5.7,14.5
	c-3.2,7.7-12.6,27.2-13.7,30.3c-3.6,10.2-1.4,20,1.2,25.8c1.6,3.5,3.5,6.3,6.7,8.6c7.3,5,14.3,6,21.4,5.9c16.3-0.2,26-9.8,52.1-15.5
	c25.8-5.6,41.9-31.6,61.2-67.3c3.7-6.8,8.5-10.9,14.8-13c4.8-1.6,9.2-2,18.5-2.2c2.9,0,3.5-0.1,4.8-0.1c14-0.4,22.3-2.9,29.8-11
	c19.4-20.6,17.6-43.9-0.9-60.2c-7.4-6.5-10.5-8.2-14-7.8c-1,0.1-2.1,0.4-3.6,1c-0.9,0.3-4.6,1.8-4.9,1.9c-5.4,2.1-10.9,3.8-16.5,4.9
	C291.1,76.9,288.5,77.6,286.1,78.4L286.1,78.4z"/>
</svg>
